# AST/ASF file generated using VICON BodyLanguage
# -----------------------------------------------
:version 1.10
:name VICON
:units
  mass 1.0
  length 0.45
  angle deg
:documentation
   .ast/.asf automatically generated from VICON data using
   VICON BodyBuilder and BodyLanguage model FoxedUp or BRILLIANT.MOD
:root
   order TX TY TZ RX RY RZ
   axis XYZ
   position 0 0 0  
   orientation 0 0 0 
:bonedata
  begin
     id 1 
     name lhipjoint
     direction 0.621036 -0.695554 0.361275 
     length 2.46325 
     axis 0 0 0  XYZ
  end
  begin
     id 2 
     name lfemur
     direction 0.34202 -0.939693 0  
     length 6.54784  
     axis 0 0 20  XYZ
    dof rx ry rz
    limits (-160.0 20.0)
           (-70.0 70.0)
           (-60.0 70.0)
  end
  begin
     id 3 
     name ltibia
     direction 0.34202 -0.939693 0   
     length 7.84737   
     axis 0 0 20   XYZ
    dof rx
    limits (-10.0 170.0)
  end
  begin
     id 4 
     name lfoot
     direction 0.0790693 -0.217241 0.97291   
     length 2.59747   
     axis -90 7.62852e-016 20   XYZ
    dof rx rz
    limits (-45.0 90.0)
           (-70.0 20.0)
  end
  begin
     id 5 
     name ltoes
     direction 1.53572e-011 -4.21898e-011 1   
     length 1.29919   
     axis -90 7.62852e-016 20   XYZ
    dof rx
    limits (-90.0 20.0)
  end
  begin
     id 6 
     name rhipjoint
     direction -0.602353 -0.708375 0.367935   
     length 2.41867  
     axis 0 0 0  XYZ 
  end
  begin
     id 7 
     name rfemur
     direction -0.34202 -0.939693 0   
     length 6.92065   
     axis 0 0 -20   XYZ
    dof rx ry rz
    limits (-160.0 20.0)
           (-70.0 70.0)
           (-70.0 60.0)
  end
  begin
     id 8 
     name rtibia
     direction -0.34202 -0.939693 0   
     length 7.88883   
     axis 0 0 -20   XYZ
    dof rx
    limits (-10.0 170.0)
 end
 begin
     id 9 
     name rfoot
     direction -0.0768692 -0.211196 0.974416   
     length 2.43714  
     axis -90 -7.62852e-016 -20   XYZ
    dof rx rz
    limits (-45.0 90.0)
           (-20.0 70.0)
  end
  begin
     id 10 
     name rtoes
     direction -1.53575e-011 -4.21933e-011 1   
     length 1.22113   
     axis -90 -7.62852e-016 -20   XYZ
    dof rx
    limits (-90.0 20.0)
  end
  begin
     id 11 
     name lowerback
     direction 0.0197937 0.98943 -0.143655   
     length 2.16931   
     axis 0 0 0   XYZ
    dof rx ry rz
    limits (-20.0 45.0)
           (-30.0 30.0)
           (-30.0 30.0)
  end
  begin
     id 12 
     name upperback
     direction -0.00183968 0.999975 0.00684288   
     length 2.17221   
     axis 0 0 0   XYZ
    dof rx ry rz
    limits (-20.0 45.0)
           (-30.0 30.0)
           (-30.0 30.0)
  end
  begin
     id 13 
     name thorax
     direction -0.00950244 0.997208 0.0740685   
     length 2.22549   
     axis 0 0 0   XYZ
    dof rx ry rz
    limits (-20.0 45.0)
           (-30.0 30.0)
           (-30.0 30.0)
  end
  begin
     id 14 
     name lowerneck
     direction 0.0218238 0.996215 0.0841425   
     length 1.77269   
     axis 0 0 0   XYZ
    dof rx ry rz
    limits (-20.0 45.0)
           (-30.0 30.0)
           (-30.0 30.0)
  end
  begin
     id 15 
     name upperneck
     direction -0.00430652 0.994214 -0.107332   
     length 1.76534   
     axis 0 0 0   XYZ
    dof rx ry rz
    limits (-20.0 45.0)
           (-30.0 30.0)
           (-30.0 30.0)
  end
  begin
     id 16
     name head
     direction -0.00328946 0.998959 -0.0454998  
     length 1.82634  
     axis 0 0 0   XYZ
    dof rx ry rz
    limits (-20.0 45.0)
           (-30.0 30.0)
           (-30.0 30.0)
  end
  begin
     id 17 
     name lclavicle
     direction 0.970962 0.239191 0.00450212  
     length 3.84872  
     axis 0 0 0   XYZ
    dof ry rz
    limits (-20.0 10.0)
           (0.0 20.0)
  end
  begin
     id 18 
     name lhumerus
     direction 1 -4.48966e-011 5.74696e-028   
     length 5.22771   
     axis 180 -30 -90   XYZ
    dof rx ry rz
    limits (-60.0 90.0)
           (-90.0 90.0)
           (-90.0 90.0)
  end
  begin
     id 19
     name lradius
     direction 1 -4.4896e-011 4.25109e-027   
     length 3.45251   
     axis 180 -30 -90   XYZ
    dof rx
    limits (-10.0 170.0)
  end
  begin
     id 20
     name lwrist
     direction 1 -4.48971e-011 1.15382e-027   
     length 1.72626   
     axis -5.52449e-016 90 90   XYZ
    dof ry
    limits (-180.0 0.0)
 end
  begin
     id 21 
     name lhand
     direction 1 -4.49034e-011 2.30765e-027   
     length 0.552119   
     axis -1.47248e-015 90 90   XYZ
    dof rx rz
    limits (-90.0 90.0)
           (-45.0 45.0)
  end
  begin
     id 22 
     name lfingers
     direction 1 -4.48951e-011 4.61529e-027   
     length 0.445133   
     axis -2.94495e-015 90 90   XYZ
    dof rx
    limits (0.0 90.0)
  end
  begin
     id 23
     name lthumb
     direction 0.707107 -6.34991e-011 0.707107   
     length 0.639124   
     axis -90 45 2.85299e-015   XYZ
    dof rx rz
    limits (-45.0 45.0)
           (-45.0 45.0)
  end
  begin
     id 24 
     name rclavicle
     direction -0.97424 0.222511 -0.0366699   
     length 3.73439  
     axis 0 0 0   XYZ 
    dof ry rz
    limits (-10.0 20.0)
           (-20.0 0.0)
  end
  begin
     id 25 
     name rhumerus
     direction -1 -4.48956e-011 -4.97258e-028  
     length 5.2398   
     axis 180 30 90   XYZ
    dof rx ry rz
    limits (-90.0 60.0)
           (-90.0 90.0)
           (-90.0 90.0)
  end
  begin
     id 26 
     name rradius
     direction -1 -4.4897e-011 -1.72611e-027   
     length 3.48042   
     axis 180 30 90   XYZ
    dof rx
    limits (-10.0 170.0)
  end
  begin
     id 27 
     name rwrist
     direction -1 -4.48976e-011 1.15382e-027   
     length 1.74021   
     axis -5.52449e-016 -90 -90   XYZ
    dof ry
    limits (-180.0 0.0)
  end
  begin
     id 28
     name rhand
     direction -1 -4.48963e-011 2.30765e-027   
     length 0.618713   
     axis -1.47248e-015 -90 -90   XYZ
    dof rx rz
    limits (-90.0 90.0)
           (-45.0 45.0)
  end
  begin
     id 29
     name rfingers
     direction -1 -4.4888e-011 4.61529e-027   
     length 0.498823   
     axis -2.94495e-015 -90 -90   XYZ
    dof rx
    limits (0.0 90.0)
  end
  begin
     id 30
     name rthumb
     direction -0.707107 -6.34968e-011 0.707107   
     length 0.716213   
     axis -90 -45 -2.85299e-015   XYZ
    dof rx rz
    limits (-45.0 45.0)
           (-45.0 45.0)
  end
:hierarchy
  begin
    root lhipjoint rhipjoint lowerback
    lhipjoint lfemur
    lfemur ltibia
    ltibia lfoot
    lfoot ltoes
    rhipjoint rfemur
    rfemur rtibia
    rtibia rfoot
    rfoot rtoes
    lowerback upperback
    upperback thorax
    thorax lowerneck lclavicle rclavicle
    lowerneck upperneck
    upperneck head
    lclavicle lhumerus
    lhumerus lradius
    lradius lwrist
    lwrist lhand lthumb
    lhand lfingers
    rclavicle rhumerus
    rhumerus rradius
    rradius rwrist
    rwrist rhand rthumb
    rhand rfingers
  end

#!OML:ASF G:\JayActor3\Patient Classification 1\Patient 1\Session 5\male.ASF
:FULLY-SPECIFIED
:DEGREES
288
root 49.6755 17.5145 -4.30007 186.415 -84.1416 -163.401
lowerback 18.2542 -0.421262 1.74958
upperback 4.68192 -0.551757 -0.688878
thorax -5.20626 -0.399994 -1.59354
lowerneck 5.18049 1.62646 2.98905
upperneck -20.5215 2.13392 -0.385789
head -7.0806 0.632245 -0.763181
rclavicle 6.75868e-015 7.55382e-015
rhumerus -30.4828 -3.11643 -87.916
rradius 37.2961
rwrist -1.9738
rhand -21.2525 -8.35086
rfingers 7.12502
rthumb 5.13058 -38.2687
lclavicle 6.75868e-015 7.55382e-015
lhumerus -33.9323 3.16843 83.1803
lradius 37.5839
lwrist 24.5127
lhand -20.6325 15.46
lfingers 7.12502
lthumb 5.72913 45.3626
rfemur -42.278 1.62312 14.5064
rtibia 38.5046
rfoot 3.90947 -11.5188
rtoes 1.20649
lfemur -33.8358 12.4335 -23.9496
ltibia 26.8279
lfoot 7.64254 -9.53377
ltoes -33.5608
289
root 49.6558 17.5116 -4.2756 186.616 -83.9182 -163.549
lowerback 18.3034 -0.391951 1.66954
upperback 4.67502 -0.531187 -0.731226
thorax -5.23884 -0.390161 -1.59748
lowerneck 5.21944 1.67008 2.99399
upperneck -20.5351 2.20252 -0.358987
head -7.09115 0.662398 -0.760916
rclavicle 1.78906e-015 2.5842e-014
rhumerus -30.5258 -3.13102 -87.9845
rradius 37.3165
rwrist -1.95167
rhand -21.2483 -8.3195
rfingers 7.12502
rthumb 5.13459 -38.2373
lclavicle 1.78906e-015 2.5842e-014
lhumerus -33.9786 3.17415 83.1358
lradius 37.533
lwrist 24.5524
lhand -20.5573 15.4738
lfingers 7.12502
lthumb 5.80178 45.3744
rfemur -42.8349 1.65326 14.4808
rtibia 39.2152
rfoot 4.51312 -11.6705
rtoes 0.0534208
lfemur -33.846 12.7649 -24.1207
ltibia 26.832
lfoot 7.50753 -9.79285
ltoes -33.5099
290
root 49.6359 17.5076 -4.25159 186.531 -83.6708 -163.407
lowerback 18.3395 -0.356171 1.613
upperback 4.66937 -0.497796 -0.767016
thorax -5.26275 -0.374196 -1.61076
lowerneck 5.26739 1.71268 2.99934
upperneck -20.5695 2.26804 -0.340637
head -7.10995 0.691094 -0.76145
rclavicle -5.96354e-015 1.98785e-014
rhumerus -30.5685 -3.14402 -88.0558
rradius 37.3463
rwrist -1.93451
rhand -21.2483 -8.30193
rfingers 7.12502
rthumb 5.13458 -38.2197
lclavicle -5.96354e-015 1.98785e-014
lhumerus -34.0227 3.17587 83.0909
lradius 37.4858
lwrist 24.5933
lhand -20.4779 15.5046
lfingers 7.12502
lthumb 5.87846 45.403
rfemur -43.4306 1.7 14.505
rtibia 39.9559
rfoot 5.14131 -11.7555
rtoes -1.17732
lfemur -33.8622 13.1158 -24.2475
ltibia 26.8514
lfoot 7.35304 -10.0532
ltoes -33.4519
291
root 49.6154 17.5026 -4.22828 186.26 -83.4031 -163.086
lowerback 18.372 -0.314453 1.57263
upperback 4.66728 -0.453901 -0.799575
thorax -5.2805 -0.353291 -1.63222
lowerneck 5.33131 1.75366 3.00488
upperneck -20.6313 2.33006 -0.329921
head -7.14046 0.7179 -0.764581
rclavicle -3.97569e-015 7.95139e-016
rhumerus -30.6122 -3.15549 -88.1306
rradius 37.3806
rwrist -1.92846
rhand -21.2491 -8.28607
rfingers 7.12502
rthumb 5.13387 -38.2039
lclavicle -3.97569e-015 7.95139e-016
lhumerus -34.0663 3.17873 83.0413
lradius 37.438
lwrist 24.6279
lhand -20.4023 15.5364
lfingers 7.12502
lthumb 5.95141 45.4328
rfemur -44.0336 1.7868 14.5613
rtibia 40.6947
rfoot 5.72809 -11.7732
rtoes -2.38755
lfemur -33.8673 13.4962 -24.34
ltibia 26.8795
lfoot 7.1852 -10.3292
ltoes -33.3715
292
root 49.5939 17.4974 -4.2061 185.888 -83.1227 -162.682
lowerback 18.4062 -0.271121 1.53633
upperback 4.67359 -0.40766 -0.82936
thorax -5.2901 -0.331407 -1.6536
lowerneck 5.398 1.79678 3.00707
upperneck -20.7097 2.39416 -0.319894
head -7.17692 0.745378 -0.767692
rclavicle 2.90226e-014 3.49861e-014
rhumerus -30.6462 -3.16401 -88.2112
rradius 37.4074
rwrist -1.92452
rhand -21.2506 -8.26907
rfingers 7.12502
rthumb 5.13241 -38.1869
lclavicle 2.90226e-014 3.49861e-014
lhumerus -34.1048 3.19915 82.9809
lradius 37.3833
lwrist 24.6524
lhand -20.3463 15.558
lfingers 7.12502
lthumb 6.00551 45.4529
rfemur -44.6123 1.92189 14.6385
rtibia 41.3938
rfoot 6.19796 -11.7346
rtoes -3.49271
lfemur -33.8458 13.9176 -24.4103
ltibia 26.9059
lfoot 7.0125 -10.636
ltoes -33.2694
293
root 49.5712 17.4923 -4.18515 185.546 -82.8385 -162.327
lowerback 18.4496 -0.229146 1.49157
upperback 4.68589 -0.365317 -0.860116
thorax -5.29829 -0.311524 -1.67034
lowerneck 5.46562 1.84235 3.00415
upperneck -20.8008 2.46072 -0.309692
head -7.21774 0.773895 -0.770211
rclavicle -1.66979e-014 -1.03368e-014
rhumerus -30.6697 -3.16444 -88.2996
rradius 37.419
rwrist -1.92216
rhand -21.2557 -8.24993
rfingers 7.12502
rthumb 5.12747 -38.1679
lclavicle -1.66979e-014 -1.03368e-014
lhumerus -34.144 3.2377 82.9088
lradius 37.3236
lwrist 24.6672
lhand -20.308 15.5787
lfingers 7.12502
lthumb 6.04242 45.4725
rfemur -45.1499 2.09834 14.7206
rtibia 42.0141
rfoot 6.4846 -11.6886
rtoes -4.41553
lfemur -33.7906 14.3712 -24.4776
ltibia 26.9172
lfoot 6.8487 -10.9689
ltoes -33.1549
294
root 49.5476 17.4879 -4.16561 185.369 -82.5593 -162.158
lowerback 18.5065 -0.189983 1.42443
upperback 4.70104 -0.331672 -0.89951
thorax -5.31091 -0.295883 -1.68162
lowerneck 5.54299 1.89004 3.0055
upperneck -20.902 2.53068 -0.301977
head -7.26352 0.803614 -0.774752
rclavicle 2.66371e-014 -2.0276e-014
rhumerus -30.6853 -3.16916 -88.3977
rradius 37.4082
rwrist -1.92191
rhand -21.258 -8.2311
rfingers 7.12502
rthumb 5.12525 -38.1491
lclavicle 2.66371e-014 -2.0276e-014
lhumerus -34.1841 3.29242 82.8201
lradius 37.2503
lwrist 24.6683
lhand -20.3005 15.593
lfingers 7.12502
lthumb 6.0497 45.4866
rfemur -45.6353 2.30465 14.7896
rtibia 42.5181
rfoot 6.53721 -11.6917
rtoes -5.1135
lfemur -33.6969 14.844 -24.563
ltibia 26.9008
lfoot 6.71454 -11.3106
ltoes -33.0214
